<?xml version="1.0" encoding="UTF-8"?>
<!--Generator: Apple Native CoreSVG 341-->
<!DOCTYPE svg
PUBLIC "-//W3C//DTD SVG 1.1//EN"
       "http://www.w3.org/Graphics/SVG/1.1/DTD/svg11.dtd">
<svg version="1.1" xmlns="http://www.w3.org/2000/svg" xmlns:xlink="http://www.w3.org/1999/xlink" viewBox="0 0 3300 2200">
 <!--glyph: "", point size: 100.0, font version: "21.0d6e2", template writer version: "138.0.0"-->
 <style>.defaults {-sfsymbols-draw-reverses-motion-groups:true}

.monochrome-0 {-sfsymbols-motion-group:2;-sfsymbols-layer-tags:3a3c80224059cf8f _enclosure.stroke square.stack}
.monochrome-1 {opacity:0.0;-sfsymbols-clear-behind:true;-sfsymbols-motion-group:1;-sfsymbols-layer-tags:3a3c80224059cf8f _enclosure.stroke square.stack}
.monochrome-2 {-sfsymbols-motion-group:1;-sfsymbols-layer-tags:3a3c80224059cf8f _enclosure.stroke square.stack}
.monochrome-3 {opacity:0.0;-sfsymbols-clear-behind:true;-sfsymbols-motion-group:0;-sfsymbols-layer-tags:3a3c80224059cf8f _enclosure.stroke square.stack}
.monochrome-4 {-sfsymbols-motion-group:0;-sfsymbols-layer-tags:3a3c80224059cf8f _enclosure.stroke square.stack}
.monochrome-5 {-sfsymbols-motion-group:0;-sfsymbols-always-pulses:true;-sfsymbols-layer-tags:-13c71ce5dcf153bb 3a3c80224059cf8f arrow.down}

.multicolor-0:tintColor {-sfsymbols-motion-group:2;-sfsymbols-layer-tags:3a3c80224059cf8f _enclosure.stroke square.stack}
.multicolor-1:tintColor {opacity:0.0;-sfsymbols-clear-behind:true;-sfsymbols-motion-group:1;-sfsymbols-layer-tags:3a3c80224059cf8f _enclosure.stroke square.stack}
.multicolor-2:tintColor {-sfsymbols-motion-group:1;-sfsymbols-layer-tags:3a3c80224059cf8f _enclosure.stroke square.stack}
.multicolor-3:tintColor {opacity:0.0;-sfsymbols-clear-behind:true;-sfsymbols-motion-group:0;-sfsymbols-layer-tags:3a3c80224059cf8f _enclosure.stroke square.stack}
.multicolor-4:tintColor {-sfsymbols-motion-group:0;-sfsymbols-layer-tags:3a3c80224059cf8f _enclosure.stroke square.stack}
.multicolor-5:tintColor {-sfsymbols-motion-group:0;-sfsymbols-always-pulses:true;-sfsymbols-layer-tags:-13c71ce5dcf153bb 3a3c80224059cf8f arrow.down}

.hierarchical-0:secondary {-sfsymbols-motion-group:2;-sfsymbols-layer-tags:3a3c80224059cf8f _enclosure.stroke square.stack}
.hierarchical-1:primary {opacity:0.0;-sfsymbols-clear-behind:true;-sfsymbols-motion-group:1;-sfsymbols-layer-tags:3a3c80224059cf8f _enclosure.stroke square.stack}
.hierarchical-2:secondary {-sfsymbols-motion-group:1;-sfsymbols-layer-tags:3a3c80224059cf8f _enclosure.stroke square.stack}
.hierarchical-3:primary {opacity:0.0;-sfsymbols-clear-behind:true;-sfsymbols-motion-group:0;-sfsymbols-layer-tags:3a3c80224059cf8f _enclosure.stroke square.stack}
.hierarchical-4:secondary {-sfsymbols-motion-group:0;-sfsymbols-layer-tags:3a3c80224059cf8f _enclosure.stroke square.stack}
.hierarchical-5:primary {-sfsymbols-motion-group:0;-sfsymbols-always-pulses:true;-sfsymbols-layer-tags:-13c71ce5dcf153bb 3a3c80224059cf8f arrow.down}

.SFSymbolsPreviewWireframe {fill:none;opacity:1.0;stroke:black;stroke-width:0.5}
</style>
 <g id="Notes">
  <rect height="2200" id="artboard" style="fill:white;opacity:1" width="3300" x="0" y="0"/>
  <line style="fill:none;stroke:black;opacity:1;stroke-width:0.5;" x1="263" x2="3036" y1="292" y2="292"/>
  <text style="stroke:none;fill:black;font-family:sans-serif;font-size:13;font-weight:bold;" transform="matrix(1 0 0 1 263 322)">Weight/Scale Variations</text>
  <text style="stroke:none;fill:black;font-family:sans-serif;font-size:13;text-anchor:middle;" transform="matrix(1 0 0 1 559.711 322)">Ultralight</text>
  <text style="stroke:none;fill:black;font-family:sans-serif;font-size:13;text-anchor:middle;" transform="matrix(1 0 0 1 856.422 322)">Thin</text>
  <text style="stroke:none;fill:black;font-family:sans-serif;font-size:13;text-anchor:middle;" transform="matrix(1 0 0 1 1153.13 322)">Light</text>
  <text style="stroke:none;fill:black;font-family:sans-serif;font-size:13;text-anchor:middle;" transform="matrix(1 0 0 1 1449.84 322)">Regular</text>
  <text style="stroke:none;fill:black;font-family:sans-serif;font-size:13;text-anchor:middle;" transform="matrix(1 0 0 1 1746.56 322)">Medium</text>
  <text style="stroke:none;fill:black;font-family:sans-serif;font-size:13;text-anchor:middle;" transform="matrix(1 0 0 1 2043.27 322)">Semibold</text>
  <text style="stroke:none;fill:black;font-family:sans-serif;font-size:13;text-anchor:middle;" transform="matrix(1 0 0 1 2339.98 322)">Bold</text>
  <text style="stroke:none;fill:black;font-family:sans-serif;font-size:13;text-anchor:middle;" transform="matrix(1 0 0 1 2636.69 322)">Heavy</text>
  <text style="stroke:none;fill:black;font-family:sans-serif;font-size:13;text-anchor:middle;" transform="matrix(1 0 0 1 2933.4 322)">Black</text>
  <line style="fill:none;stroke:black;opacity:1;stroke-width:0.5;" x1="263" x2="3036" y1="1903" y2="1903"/>
  <g transform="matrix(0.2 0 0 0.2 263 1933)">
   <path d="m46.2402 4.15039c21.7773 0 39.4531-17.627 39.4531-39.4043s-17.6758-39.4043-39.4531-39.4043c-21.7285 0-39.4043 17.627-39.4043 39.4043s17.6758 39.4043 39.4043 39.4043Zm0-7.42188c-17.6758 0-31.9336-14.3066-31.9336-31.9824s14.2578-31.9824 31.9336-31.9824 31.9824 14.3066 31.9824 31.9824-14.3066 31.9824-31.9824 31.9824Zm3.61328-17.7734v-28.4668c0-2.24609-1.46484-3.75977-3.71094-3.75977-2.14844 0-3.61328 1.51367-3.61328 3.75977v28.4668c0 2.19727 1.46484 3.71094 3.61328 3.71094 2.24609 0 3.71094-1.51367 3.71094-3.71094Zm-17.8223-10.5957h28.418c2.19727 0 3.71094-1.46484 3.71094-3.61328 0-2.19727-1.51367-3.71094-3.71094-3.71094h-28.418c-2.24609 0-3.75977 1.51367-3.75977 3.71094 0 2.14844 1.51367 3.61328 3.75977 3.61328Z"/>
  </g>
  <g transform="matrix(0.2 0 0 0.2 281.506 1933)">
   <path d="m58.5449 14.5508c27.4902 0 49.8047-22.3145 49.8047-49.8047s-22.3145-49.8047-49.8047-49.8047-49.8047 22.3145-49.8047 49.8047 22.3145 49.8047 49.8047 49.8047Zm0-8.30078c-22.9492 0-41.5039-18.5547-41.5039-41.5039s18.5547-41.5039 41.5039-41.5039 41.5039 18.5547 41.5039 41.5039-18.5547 41.5039-41.5039 41.5039Zm4.05273-23.0957v-36.9141c0-2.49023-1.70898-4.19922-4.15039-4.19922-2.39258 0-4.05273 1.70898-4.05273 4.19922v36.9141c0 2.44141 1.66016 4.15039 4.05273 4.15039 2.44141 0 4.15039-1.66016 4.15039-4.15039Zm-22.5586-14.4043h36.9629c2.44141 0 4.15039-1.61133 4.15039-4.00391 0-2.44141-1.70898-4.15039-4.15039-4.15039h-36.9629c-2.49023 0-4.15039 1.70898-4.15039 4.15039 0 2.39258 1.66016 4.00391 4.15039 4.00391Z"/>
  </g>
  <g transform="matrix(0.2 0 0 0.2 304.924 1933)">
   <path d="m74.8535 28.3203c35.1074 0 63.623-28.4668 63.623-63.5742s-28.5156-63.623-63.623-63.623-63.5742 28.5156-63.5742 63.623 28.4668 63.5742 63.5742 63.5742Zm0-9.08203c-30.127 0-54.4922-24.3652-54.4922-54.4922s24.3652-54.4922 54.4922-54.4922 54.4922 24.3652 54.4922 54.4922-24.3652 54.4922-54.4922 54.4922Zm4.44336-30.3223v-48.4863c0-2.73438-1.85547-4.63867-4.54102-4.63867-2.58789 0-4.44336 1.9043-4.44336 4.63867v48.4863c0 2.68555 1.85547 4.58984 4.44336 4.58984 2.68555 0 4.54102-1.85547 4.54102-4.58984Zm-28.7109-19.7754h48.4863c2.68555 0 4.58984-1.80664 4.58984-4.39453 0-2.73438-1.85547-4.58984-4.58984-4.58984h-48.4863c-2.73438 0-4.58984 1.85547-4.58984 4.58984 0 2.58789 1.85547 4.39453 4.58984 4.39453Z"/>
  </g>
  <text style="stroke:none;fill:black;font-family:sans-serif;font-size:13;font-weight:bold;" transform="matrix(1 0 0 1 263 1953)">Design Variations</text>
  <text style="stroke:none;fill:black;font-family:sans-serif;font-size:13;" transform="matrix(1 0 0 1 263 1971)">Symbols are supported in up to nine weights and three scales.</text>
  <text style="stroke:none;fill:black;font-family:sans-serif;font-size:13;" transform="matrix(1 0 0 1 263 1989)">For optimal layout with text and other symbols, vertically align</text>
  <text style="stroke:none;fill:black;font-family:sans-serif;font-size:13;" transform="matrix(1 0 0 1 263 2007)">symbols with the adjacent text.</text>
  <line style="fill:none;stroke:#00AEEF;stroke-width:0.5;opacity:1.0;" x1="776" x2="776" y1="1919" y2="1933"/>
  <g transform="matrix(0.2 0 0 0.2 776 1933)">
   <path d="m16.5527 0.78125c2.58789 0 3.85742-0.976562 4.78516-3.71094l20.5566-57.5195h0.244141l20.6055 57.5195c0.927734 2.73438 2.19727 3.71094 4.73633 3.71094 2.58789 0 4.24805-1.5625 4.24805-4.00391 0-0.830078-0.146484-1.61133-0.537109-2.63672l-22.9004-60.9863c-1.12305-2.97852-3.125-4.49219-6.25-4.49219-3.02734 0-5.07812 1.46484-6.15234 4.44336l-22.9004 61.084c-0.390625 1.02539-0.537109 1.80664-0.537109 2.63672 0 2.44141 1.5625 3.95508 4.10156 3.95508Zm10.2051-20.9473h30.6641c2.00195 0 3.66211-1.66016 3.66211-3.66211 0-2.05078-1.66016-3.66211-3.66211-3.66211h-30.6641c-2.00195 0-3.66211 1.61133-3.66211 3.66211 0 2.00195 1.66016 3.66211 3.66211 3.66211Z"/>
  </g>
  <line style="fill:none;stroke:#00AEEF;stroke-width:0.5;opacity:1.0;" x1="792.836" x2="792.836" y1="1919" y2="1933"/>
  <text style="stroke:none;fill:black;font-family:sans-serif;font-size:13;font-weight:bold;" transform="matrix(1 0 0 1 776 1953)">Margins</text>
  <text style="stroke:none;fill:black;font-family:sans-serif;font-size:13;" transform="matrix(1 0 0 1 776 1971)">Leading and trailing margins on the left and right side of each symbol</text>
  <text style="stroke:none;fill:black;font-family:sans-serif;font-size:13;" transform="matrix(1 0 0 1 776 1989)">can be adjusted by modifying the x-location of the margin guidelines.</text>
  <text style="stroke:none;fill:black;font-family:sans-serif;font-size:13;" transform="matrix(1 0 0 1 776 2007)">Modifications are automatically applied proportionally to all</text>
  <text style="stroke:none;fill:black;font-family:sans-serif;font-size:13;" transform="matrix(1 0 0 1 776 2025)">scales and weights.</text>
  <g transform="matrix(0.2 0 0 0.2 1289 1933)">
   <path d="m14.209 13.1348 7.86133 7.86133c4.29688 4.39453 9.32617 4.10156 13.8672-1.02539l60.6934-68.2129-4.88281-4.88281-60.2539 67.6758c-1.80664 1.95312-3.4668 2.44141-5.81055 0.0976562l-5.17578-5.12695c-2.29492-2.29492-1.80664-3.95508 0.195312-5.81055l67.4805-62.1582-4.88281-4.83398-68.0664 62.5977c-4.98047 4.58984-5.32227 9.47266-1.02539 13.8184Zm44.873-97.4609c-2.05078 2.00195-2.24609 4.88281-1.07422 6.78711 1.12305 1.80664 3.4668 3.02734 6.5918 2.24609 5.85938-1.66016 12.5977-2.39258 18.8965 0.927734l-2.68555 7.12891c-1.61133 4.00391-0.732422 6.88477 1.70898 9.42383l10.2539 10.3027c2.34375 2.39258 4.54102 2.44141 7.08008 1.95312l4.44336-0.732422 2.58789 2.53906-0.195312 2.24609c-0.0976562 2.29492 0.537109 4.29688 2.7832 6.49414l3.36914 3.32031c2.29492 2.29492 5.51758 2.49023 7.8125 0.195312l12.9883-13.0371c2.29492-2.34375 2.14844-5.37109-0.195312-7.66602l-3.41797-3.41797c-2.19727-2.19727-4.05273-3.02734-6.34766-2.88086l-2.34375 0.244141-2.44141-2.44141 1.02539-4.6875c0.634766-2.73438-0.244141-4.98047-2.88086-7.61719l-11.2793-11.1816c-12.9395-12.8418-35.5957-11.0352-46.6797-0.146484Zm7.08008 2.05078c8.78906-6.39648 25.9766-5.66406 33.6914 1.95312l12.3047 12.207c1.02539 1.02539 1.2207 1.80664 0.927734 3.32031l-1.46484 6.64062 6.73828 6.68945 4.39453-0.244141c1.12305-0.0488281 1.51367 0.0488281 2.34375 0.878906l2.53906 2.49023-10.8398 10.8398-2.49023-2.49023c-0.830078-0.878906-0.976562-1.2207-0.927734-2.39258l0.292969-4.3457-6.68945-6.73828-6.83594 1.17188c-1.41602 0.292969-2.05078 0.195312-3.17383-0.878906l-8.93555-8.88672c-1.07422-1.02539-1.17188-1.70898-0.488281-3.36914l4.58984-11.4746c-6.10352-6.34766-17.041-7.51953-25.5859-4.58984-0.683594 0.244141-0.927734-0.390625-0.390625-0.78125Z"/>
  </g>
  <text style="stroke:none;fill:black;font-family:sans-serif;font-size:13;font-weight:bold;" transform="matrix(1 0 0 1 1289 1953)">Exporting</text>
  <text style="stroke:none;fill:black;font-family:sans-serif;font-size:13;" transform="matrix(1 0 0 1 1289 1971)">Symbols should be outlined when exporting to ensure the</text>
  <text style="stroke:none;fill:black;font-family:sans-serif;font-size:13;" transform="matrix(1 0 0 1 1289 1989)">design is preserved when submitting to Xcode.</text>
  <text id="template-version" style="stroke:none;fill:black;font-family:sans-serif;font-size:13;text-anchor:end;" transform="matrix(1 0 0 1 3036 1933)">Template v.7.0</text>
  <text style="stroke:none;fill:black;font-family:sans-serif;font-size:13;text-anchor:end;" transform="matrix(1 0 0 1 3036 1951)">Requires Xcode 17 or greater</text>
  <text id="descriptive-name" style="stroke:none;fill:black;font-family:sans-serif;font-size:13;text-anchor:end;" transform="matrix(1 0 0 1 3036 1969)">Generated from square.stack</text>
  <text style="stroke:none;fill:black;font-family:sans-serif;font-size:13;text-anchor:end;" transform="matrix(1 0 0 1 3036 1987)">Typeset at 100.0 points</text>
  <text style="stroke:none;fill:black;font-family:sans-serif;font-size:13;" transform="matrix(1 0 0 1 263 726)">Small</text>
  <text style="stroke:none;fill:black;font-family:sans-serif;font-size:13;" transform="matrix(1 0 0 1 263 1156)">Medium</text>
  <text style="stroke:none;fill:black;font-family:sans-serif;font-size:13;" transform="matrix(1 0 0 1 263 1586)">Large</text>
 </g>
 <g id="Guides">
  <g id="H-reference" style="fill:#27AAE1;stroke:none;" transform="matrix(1 0 0 1 339 696)">
   <path d="M0.993654 0L3.63775 0L29.3281-67.1323L30.0303-67.1323L30.0303-70.459L28.1226-70.459ZM11.6885-24.4799L46.9815-24.4799L46.2315-26.7285L12.4385-26.7285ZM55.1196 0L57.7637 0L30.6382-70.459L29.4326-70.459L29.4326-67.1323Z"/>
  </g>
  <line id="Baseline-S" style="fill:none;stroke:#27AAE1;opacity:1;stroke-width:0.5;" x1="263" x2="3036" y1="696" y2="696"/>
  <line id="Capline-S" style="fill:none;stroke:#27AAE1;opacity:1;stroke-width:0.5;" x1="263" x2="3036" y1="625.541" y2="625.541"/>
  <g id="H-reference" style="fill:#27AAE1;stroke:none;" transform="matrix(1 0 0 1 339 1126)">
   <path d="M0.993654 0L3.63775 0L29.3281-67.1323L30.0303-67.1323L30.0303-70.459L28.1226-70.459ZM11.6885-24.4799L46.9815-24.4799L46.2315-26.7285L12.4385-26.7285ZM55.1196 0L57.7637 0L30.6382-70.459L29.4326-70.459L29.4326-67.1323Z"/>
  </g>
  <line id="Baseline-M" style="fill:none;stroke:#27AAE1;opacity:1;stroke-width:0.5;" x1="263" x2="3036" y1="1126" y2="1126"/>
  <line id="Capline-M" style="fill:none;stroke:#27AAE1;opacity:1;stroke-width:0.5;" x1="263" x2="3036" y1="1055.54" y2="1055.54"/>
  <g id="H-reference" style="fill:#27AAE1;stroke:none;" transform="matrix(1 0 0 1 339 1556)">
   <path d="M0.993654 0L3.63775 0L29.3281-67.1323L30.0303-67.1323L30.0303-70.459L28.1226-70.459ZM11.6885-24.4799L46.9815-24.4799L46.2315-26.7285L12.4385-26.7285ZM55.1196 0L57.7637 0L30.6382-70.459L29.4326-70.459L29.4326-67.1323Z"/>
  </g>
  <line id="Baseline-L" style="fill:none;stroke:#27AAE1;opacity:1;stroke-width:0.5;" x1="263" x2="3036" y1="1556" y2="1556"/>
  <line id="Capline-L" style="fill:none;stroke:#27AAE1;opacity:1;stroke-width:0.5;" x1="263" x2="3036" y1="1485.54" y2="1485.54"/>
  <line id="right-margin-Black-S" style="fill:none;stroke:#00AEEF;stroke-width:0.5;opacity:1.0;" x1="2979.84" x2="2979.84" y1="600.785" y2="720.121"/>
  <line id="left-margin-Black-S" style="fill:none;stroke:#00AEEF;stroke-width:0.5;opacity:1.0;" x1="2886.96" x2="2886.96" y1="600.785" y2="720.121"/>
  <line id="right-margin-Regular-S" style="fill:none;stroke:#00AEEF;stroke-width:0.5;opacity:1.0;" x1="1493.64" x2="1493.64" y1="600.785" y2="720.121"/>
  <line id="left-margin-Regular-S" style="fill:none;stroke:#00AEEF;stroke-width:0.5;opacity:1.0;" x1="1406.05" x2="1406.05" y1="600.785" y2="720.121"/>
  <line id="right-margin-Ultralight-S" style="fill:none;stroke:#00AEEF;stroke-width:0.5;opacity:1.0;" x1="600.672" x2="600.672" y1="600.785" y2="720.121"/>
  <line id="left-margin-Ultralight-S" style="fill:none;stroke:#00AEEF;stroke-width:0.5;opacity:1.0;" x1="518.75" x2="518.75" y1="600.785" y2="720.121"/>
 </g>
 <g id="Symbols">
  <g id="Black-S" transform="matrix(1 0 0 1 2886.96 696)">
   <path class="monochrome-0 multicolor-0:tintColor hierarchical-0:secondary SFSymbolsPreviewWireframe" d="M33.9355-43.8477L58.9355-43.8477C63.0859-43.8477 65.625-46.4355 65.625-50.5371L65.625-78.2227C65.625-82.373 63.0859-84.9121 58.9355-84.9121L33.9355-84.9121C29.7852-84.9121 27.2461-82.373 27.2461-78.2227L27.2461-50.5371C27.2461-46.4355 29.7852-43.8477 33.9355-43.8477Z"/>
   <path class="monochrome-1 multicolor-1:tintColor hierarchical-1:primary SFSymbolsPreviewWireframe" d="M28.5645-13.1836L64.3066-13.1836C72.998-13.1836 79.0527-19.2383 79.0527-27.9297L79.0527-63.8672C79.0527-72.5586 72.998-78.6133 64.3066-78.6133L28.5645-78.6133C19.873-78.6133 13.8184-72.5586 13.8184-63.8672L13.8184-27.9297C13.8184-19.2383 19.873-13.1836 28.5645-13.1836Z"/>
   <path class="monochrome-2 multicolor-2:tintColor hierarchical-2:secondary SFSymbolsPreviewWireframe" d="M28.5645-19.043L64.3066-19.043C69.6289-19.043 72.9492-22.3633 72.9492-27.6855L72.9492-63.8672C72.9492-69.1895 69.6289-72.5098 64.3066-72.5098L28.5645-72.5098C23.2422-72.5098 19.9219-69.1895 19.9219-63.8672L19.9219-27.6855C19.9219-22.3633 23.2422-19.043 28.5645-19.043Z"/>
   <path class="monochrome-3 multicolor-3:tintColor hierarchical-3:primary SFSymbolsPreviewWireframe" d="M25 21.0938L67.8711 21.0938C81.1035 21.0938 89.6973 12.5 89.6973-0.732422L89.6973-43.6035C89.6973-56.8359 81.1035-65.4297 67.8711-65.4297L25-65.4297C11.7676-65.4297 3.17383-56.8359 3.17383-43.6035L3.17383-0.732422C3.17383 12.5 11.7676 21.0938 25 21.0938Z"/>
   <path class="monochrome-4 multicolor-4:tintColor hierarchical-4:secondary SFSymbolsPreviewWireframe" d="M25 14.502L67.8711 14.502C77.4414 14.502 83.1055 8.83789 83.1055-0.732422L83.1055-43.6035C83.1055-53.1738 77.4414-58.8379 67.8711-58.8379L25-58.8379C15.4297-58.8379 9.76562-53.1738 9.76562-43.6035L9.76562-0.732422C9.76562 8.83789 15.4297 14.502 25 14.502ZM27.2461 0.341797C25 0.341797 23.9258-0.537109 23.9258-2.97852L23.9258-41.3574C23.9258-43.7988 25-44.6777 27.2461-44.6777L65.625-44.6777C67.8711-44.6777 68.9453-43.7988 68.9453-41.3574L68.9453-2.97852C68.9453-0.537109 67.8711 0.341797 65.625 0.341797Z"/>
   <path class="monochrome-5 multicolor-5:tintColor hierarchical-5:primary SFSymbolsPreviewWireframe" d="M46.4223-6.94321C47.3921-6.94321 48.461-7.34254 49.075-7.95574L58.6943-17.5838C59.4224-18.3125 59.8234-19.2212 59.8234-20.169C59.8234-22.2475 58.3437-23.6367 56.4208-23.6367C55.2678-23.6367 54.4797-23.1013 53.8126-22.4115L50.7319-19.2818L46.4232-13.6361L42.1128-19.2818L39.0525-22.4115C38.3878-23.1013 37.5997-23.6367 36.4444-23.6367C34.5238-23.6367 33.0441-22.2475 33.0441-20.169C33.0441-19.2212 33.4427-18.3125 34.1708-17.5838L43.7697-7.95574C44.3837-7.34254 45.4503-6.94321 46.4223-6.94321ZM46.4223-10.1332C48.3683-10.1332 49.6739-11.5024 49.6739-13.5851L50.048-21.2853L50.048-33.0589C50.048-35.3905 48.6147-36.9158 46.4223-36.9158C44.23-36.9158 42.7943-35.3905 42.7943-33.0589L42.7943-21.2853L43.1708-13.5899C43.1708-11.5024 44.4741-10.1332 46.4223-10.1332Z"/>
  </g>
  <g id="Regular-S" transform="matrix(1 0 0 1 1406.05 696)">
   <path class="monochrome-0 multicolor-0:tintColor hierarchical-0:secondary SFSymbolsPreviewWireframe" d="M31.6406-42.334L55.957-42.334C59.7168-42.334 61.8652-44.3848 61.8652-48.1445L61.8652-74.707C61.8652-78.4668 59.7168-80.5664 55.957-80.5664L31.6406-80.5664C27.8809-80.5664 25.7324-78.4668 25.7324-74.707L25.7324-48.1445C25.7324-44.3848 27.8809-42.334 31.6406-42.334Z"/>
   <path class="monochrome-1 multicolor-1:tintColor hierarchical-1:primary SFSymbolsPreviewWireframe" d="M25.6836-9.57031L61.9629-9.57031C69.7754-9.57031 74.9023-14.5508 74.9023-22.3633L74.9023-62.2559C74.9023-70.0195 69.7754-75.0488 61.9629-75.0488L25.6836-75.0488C17.8223-75.0488 12.7441-70.0195 12.7441-62.2559L12.7441-22.3633C12.7441-14.5508 17.8223-9.57031 25.6836-9.57031Z"/>
   <path class="monochrome-2 multicolor-2:tintColor hierarchical-2:secondary SFSymbolsPreviewWireframe" d="M25.5371-14.502L62.0605-14.502C67.0898-14.502 69.9219-17.2852 69.9219-22.2656L69.9219-62.3535C69.9219-67.2852 67.0898-70.0684 62.0605-70.0684L25.5371-70.0684C20.5078-70.0684 17.6758-67.2852 17.6758-62.3535L17.6758-22.2656C17.6758-17.2852 20.5078-14.502 25.5371-14.502Z"/>
   <path class="monochrome-3 multicolor-3:tintColor hierarchical-3:primary SFSymbolsPreviewWireframe" d="M22.2168 16.0645L65.4297 16.0645C76.9531 16.0645 83.7891 9.375 83.7891-2.14844L83.7891-45.7031C83.7891-57.2266 76.9531-63.916 65.4297-63.916L22.2168-63.916C10.5957-63.916 3.80859-57.2266 3.80859-45.7031L3.80859-2.14844C3.80859 9.375 10.5957 16.0645 22.2168 16.0645Z"/>
   <path class="monochrome-4 multicolor-4:tintColor hierarchical-4:secondary SFSymbolsPreviewWireframe" d="M22.2168 10.1562L65.4297 10.1562C73.7305 10.1562 77.8809 6.05469 77.8809-2.14844L77.8809-45.7031C77.8809-53.9062 73.7305-57.959 65.4297-57.959L22.2168-57.959C13.8672-57.959 9.76562-53.9062 9.76562-45.7031L9.76562-2.14844C9.76562 6.05469 13.8672 10.1562 22.2168 10.1562ZM22.3145 3.125C18.7988 3.125 16.7969 1.2207 16.7969-2.49023L16.7969-45.3125C16.7969-49.0234 18.7988-50.9277 22.3145-50.9277L65.332-50.9277C68.7988-50.9277 70.8496-49.0234 70.8496-45.3125L70.8496-2.49023C70.8496 1.2207 68.7988 3.125 65.332 3.125Z"/>
   <path class="monochrome-5 multicolor-5:tintColor hierarchical-5:primary SFSymbolsPreviewWireframe" d="M43.7911-6.30803C44.621-6.30803 45.4905-6.66383 46.0601-7.24732L58.3889-19.5966C59.0192-20.2562 59.3472-21.0113 59.3472-21.8153C59.3472-23.5496 58.0884-24.7892 56.4219-24.7892C55.5087-24.7892 54.7897-24.3901 54.2343-23.8226L50.6627-20.2823L43.7772-12.2116L36.9195-20.2823L33.3583-23.8226C32.8046-24.3901 32.0855-24.7892 31.1708-24.7892C29.5059-24.7892 28.2471-23.5496 28.2471-21.8153C28.2471-21.0113 28.5735-20.2562 29.2037-19.5966L41.5221-7.24732C42.0916-6.66383 42.9595-6.30803 43.7911-6.30803ZM43.7911-9.35884C45.4265-9.35884 46.5357-10.5013 46.5357-12.2094L46.8778-19.7823L46.8778-39.9552C46.8778-41.868 45.6294-43.1509 43.7911-43.1509C41.9527-43.1509 40.7027-41.868 40.7027-39.9552L40.7027-19.7823L41.0464-12.2127C41.0464-10.5013 42.1541-9.35884 43.7911-9.35884Z"/>
  </g>
  <g id="Ultralight-S" transform="matrix(1 0 0 1 518.75 696)">
   <path class="monochrome-0 multicolor-0:tintColor hierarchical-0:secondary SFSymbolsPreviewWireframe" d="M28.2349-38.565L53.6865-38.565C55.4029-38.565 56.5977-39.7984 56.5977-41.5147L56.5977-72.3911C56.5977-74.1075 55.4029-75.2989 53.6865-75.2989L28.2349-75.2989C26.5186-75.2989 25.2783-74.1075 25.2783-72.3911L25.2783-41.5147C25.2783-39.7984 26.5186-38.565 28.2349-38.565Z"/>
   <path class="monochrome-1 multicolor-1:tintColor hierarchical-1:primary SFSymbolsPreviewWireframe" d="M23.1406-11.0234L58.7388-11.0234C65.2798-11.0234 69.9981-15.7314 69.9981-22.2725L69.9981-61.938C69.9981-68.4756 65.2798-73.187 58.7388-73.187L23.1406-73.187C16.5962-73.187 11.8814-68.4756 11.8814-61.938L11.8814-22.2725C11.8814-15.7314 16.5962-11.0234 23.1406-11.0234Z"/>
   <path class="monochrome-2 multicolor-2:tintColor hierarchical-2:secondary SFSymbolsPreviewWireframe" d="M21.314-17.272L60.6074-17.272C62.5035-17.272 63.7461-18.5112 63.7461-20.4038L63.7461-63.8066C63.7461-65.6958 62.5035-66.8897 60.6074-66.8897L21.314-66.8897C19.3726-66.8897 18.1753-65.6958 18.1753-63.8066L18.1753-20.4038C18.1753-18.5112 19.3726-17.272 21.314-17.272Z"/>
   <path class="monochrome-3 multicolor-3:tintColor hierarchical-3:primary SFSymbolsPreviewWireframe" d="M19.7193 12.1592L62.1602 12.1592C72.73 12.1592 79.4297 5.37894 79.4297-5.05466L79.4297-47.5195C79.4297-57.9531 72.73-64.7334 62.1602-64.7334L19.7193-64.7334C9.188-64.7334 2.49171-58.0439 2.49171-47.5195L2.49171-5.05466C2.49171 5.46976 9.188 12.1592 19.7193 12.1592Z"/>
   <path class="monochrome-4 multicolor-4:tintColor hierarchical-4:secondary SFSymbolsPreviewWireframe" d="M19.7193 4.88871L62.1602 4.88871C68.69 4.88871 72.1592 1.37748 72.1592-5.05466L72.1592-47.5195C72.1592-53.9517 68.69-57.5049 62.1602-57.5049L19.7193-57.5049C13.186-57.5049 9.76562-54.0425 9.76562-47.5195L9.76562-5.05466C9.76562 1.4683 13.186 4.88871 19.7193 4.88871ZM19.8169 2.71631C14.6665 2.71631 11.938-0.00536144 11.938-5.16941L11.938-47.4014C11.938-52.6108 14.6665-55.2871 19.8169-55.2871L62.0625-55.2871C67.0733-55.2871 69.9414-52.6108 69.9414-47.4014L69.9414-5.16941C69.9414-0.00536144 67.0733 2.71631 62.0625 2.71631Z"/>
   <path class="monochrome-5 multicolor-5:tintColor hierarchical-5:primary SFSymbolsPreviewWireframe" d="M40.9602-8.99859C41.267-8.99859 41.5207-9.11322 41.7487-9.35121L54.768-22.323C54.996-22.5566 55.0906-22.8046 55.0906-23.1015C55.0906-23.7008 54.6447-24.1524 54.0641-24.1524C53.7672-24.1524 53.4704-24.0434 53.3013-23.8743L46.7593-17.3724L40.9502-11.2181L35.161-17.3724L28.6335-23.8743C28.45-24.0434 28.1531-24.1524 27.8707-24.1524C27.2757-24.1524 26.8298-23.7008 26.8298-23.1015C26.8298-22.8046 26.9388-22.5566 27.1667-22.323L40.1717-9.35121C40.3997-9.11322 40.6677-8.99859 40.9602-8.99859ZM40.9602-10.4257C41.5251-10.4257 41.9021-10.8315 41.9021-11.3964L42.0311-16.3086L42.0311-43.6139C42.0311-44.2145 41.5752-44.6604 40.9602-44.6604C40.3452-44.6604 39.9036-44.2145 39.9036-43.6139L39.9036-16.3086L40.0183-11.3677C40.0183-10.8315 40.4097-10.4257 40.9602-10.4257Z"/>
  </g>
 </g>
</svg>
